HIERARCHY
ROOT Hips
{
	OFFSET 0.00000 0.00000 0.00000
	CHANNELS 6 Xposition Yposition Zposition Zrotation Yrotation Xrotation 
	JOINT RightUpLegDummy
	{
		OFFSET 0 0 0
		CHANNELS 3 Zrotation Yrotation Xrotation
		JOINT RightUpLeg
		{
			OFFSET -3.52197 -3.41223 0.04002
			CHANNELS 3 Zrotation Yrotation Xrotation
			JOINT RightLeg
			{
				OFFSET 0.00006 -17.42390 1.60435
				CHANNELS 3 Zrotation Yrotation Xrotation
				JOINT RightFoot
				{
					OFFSET 0.06153 -16.50078 -1.63901
					CHANNELS 3 Zrotation Yrotation Xrotation
					JOINT RightToes
					{
						OFFSET 0.00298 -1.73825 3.34613
						CHANNELS 3 Zrotation Yrotation Xrotation
						End Site
						{
							OFFSET 0.00480 -0.05416 3.85043
						}
					}
				}
			}
		}
	}
	JOINT SpineDummy
	{
		OFFSET 0 0 0
		CHANNELS 3 Zrotation Yrotation Xrotation
		JOINT Spine
		{
			OFFSET 0.00000 4.68130 0.00000
			CHANNELS 3 Zrotation Yrotation Xrotation
			JOINT Spine1
			{
				OFFSET -0.00000 10.10138 0.05002
				CHANNELS 3 Zrotation Yrotation Xrotation
				JOINT HEadDummy
				{
					OFFSET 0 0 0
					CHANNELS 3 Zrotation Yrotation Xrotation
					JOINT Head
					{
						OFFSET -0.00000 3.43865 0.00438
						CHANNELS 3 Zrotation Yrotation Xrotation
						End Site
						{
							OFFSET -0.11417 5.02924 0.98962
						}
					}
				}
				JOINT LeftShoulder1Dummy
				{
					OFFSET 0 0 0
					CHANNELS 3 Zrotation Yrotation Xrotation
					JOINT LeftShoulder1
					{
						OFFSET 3.53937 -0.14262 -0.08662
						CHANNELS 3 Zrotation Yrotation Xrotation
						JOINT LeftArm
						{
							OFFSET 4.04833 -0.00133 0.12681
							CHANNELS 3 Zrotation Yrotation Xrotation
							JOINT LeftForeArm
							{
								OFFSET 10.33880 -0.01036 -0.55515
								CHANNELS 3 Zrotation Yrotation Xrotation
								JOINT LeftHand
								{
									OFFSET 8.69677 0.07543 0.40060
									CHANNELS 3 Zrotation Yrotation Xrotation
									End Site
									{
										OFFSET 5.28377 -0.21905 0.59205
									}
								}
							}
						}
					}
				}
				JOINT RightShoulderDummy
				{
					OFFSET 0 0 0
					CHANNELS 3 Zrotation Yrotation Xrotation
					JOINT RightShoulder
					{
						OFFSET -3.53937 -0.14262 -0.08660
						CHANNELS 3 Zrotation Yrotation Xrotation
						JOINT RightArm
						{
							OFFSET -4.04833 -0.00133 0.12683
							CHANNELS 3 Zrotation Yrotation Xrotation
							JOINT RightForeArm
							{
								OFFSET -10.37987 -0.01039 -0.55511
								CHANNELS 3 Zrotation Yrotation Xrotation
								JOINT RightHand
								{
									OFFSET -8.67398 0.07538 0.40058
									CHANNELS 3 Zrotation Yrotation Xrotation
									End Site
									{
										OFFSET -5.24810 -0.21916 0.59204
									}
								}
							}
						}
					}
				}
			}
		}
	}
	JOINT LeftUpLegDummy
	{
		OFFSET 0 0 0
		CHANNELS 3 Zrotation Yrotation Xrotation
		JOINT LeftUpLeg
		{
			OFFSET 3.52197 -3.41223 0.04002
			CHANNELS 3 Zrotation Yrotation Xrotation
			JOINT LeftLeg
			{
				OFFSET -0.00012 -17.42399 1.60337
				CHANNELS 3 Zrotation Yrotation Xrotation
				JOINT LeftFoot
				{
					OFFSET -0.09972 -16.50070 -1.63802
					CHANNELS 3 Zrotation Yrotation Xrotation
					JOINT LeftToes
					{
						OFFSET -0.01575 -1.73823 3.34611
						CHANNELS 3 Zrotation Yrotation Xrotation
						End Site
						{
							OFFSET 0.03150 -0.01868 3.85031
						}
					}
				}
			}
		}
	}
}
MOTION
Frames: 11
Frame Time: 0.033333
-1.0974 40.1334 -2.8929 -2.1194 -9.9012 -2.3496 0.0000 0.0000 0.0000 0.3571 -2.2413 2.6914 -0.8259 -1.4365 3.0873 0.3605 -0.0482 -2.8613 0.0000 -0.0000 0.0000 0.0000 0.0000 0.0000 3.4988 -0.2632 1.2376 -0.2732 -0.3724 0.8038 -0.0000 0.0000 -0.0000 7.8175 -5.9022 -2.6429 -0.0000 0.0000 -0.0000 -31.3088 -3.5343 2.6252 -43.0778 -14.6097 -20.4321 -8.7510 4.9938 53.1496 13.3555 -3.1779 -0.9604 -0.0000 0.0000 -0.0000 34.4029 5.1953 3.5159 40.2872 1.7568 -15.6506 11.2222 1.9320 21.3892 -12.1405 2.7676 -0.8315 0.0000 0.0000 0.0000 3.9882 3.2046 4.7855 4.5696 19.3271 5.8015 -1.1485 0.0979 -4.8637 0.0000 0.0000 -0.0000
-1.1061 40.1334 -2.8929 -2.0762 -9.7924 -2.3520 0.0000 0.0000 0.0000 0.3233 -2.2637 2.6781 -0.8350 -1.5122 3.1197 0.3738 -0.0490 -2.8838 0.0000 -0.0000 0.0000 0.0000 0.0000 0.0000 3.4322 -0.2392 1.2172 -0.1758 -0.3646 0.7972 -0.0000 0.0000 -0.0000 7.6594 -5.9820 -2.8256 -0.0000 0.0000 -0.0000 -31.5011 -3.4907 2.6237 -43.1103 -14.7660 -20.0647 -8.9773 5.0035 52.7670 13.2475 -3.1803 -0.9526 -0.0000 0.0000 -0.0000 34.1716 5.1596 3.4812 40.6048 1.8435 -15.4747 11.2645 2.1361 21.3645 -12.2244 2.9536 -0.8556 0.0000 0.0000 0.0000 3.9590 3.1869 4.7947 4.5298 19.2570 5.7160 -1.1485 0.0979 -4.8301 0.0000 0.0000 -0.0000
-1.1186 40.1334 -2.8929 -2.0081 -9.5777 -2.3704 0.0000 0.0000 0.0000 0.2733 -2.2947 2.6957 -0.8655 -1.6817 3.1557 0.3889 -0.0499 -2.9205 0.0000 -0.0000 0.0000 0.0000 0.0000 0.0000 3.4030 -0.1980 1.1497 -0.1502 -0.3279 0.8689 -0.0000 0.0000 -0.0000 7.4172 -6.0237 -3.1107 -0.0000 0.0000 -0.0000 -31.6764 -3.4366 2.6159 -43.4037 -15.1744 -19.5533 -9.2297 5.0149 52.3210 13.1776 -3.2789 -0.9578 -0.0000 0.0000 -0.0000 33.8927 5.1122 3.4379 41.1061 1.9770 -15.1715 11.3277 2.5738 21.3196 -12.1794 3.0360 -0.8604 0.0000 0.0000 0.0000 3.9180 3.1627 4.8249 4.4531 19.0838 5.5889 -1.1485 0.0979 -4.7805 0.0000 0.0000 -0.0000
-1.1284 40.1334 -2.8929 -1.9687 -9.3927 -2.4168 0.0000 0.0000 0.0000 0.2586 -2.2983 2.7455 -0.9109 -1.8514 3.1875 0.4001 -0.0505 -2.9559 0.0000 -0.0000 0.0000 0.0000 0.0000 0.0000 3.4694 -0.1397 1.0644 -0.2612 -0.2513 1.0281 -0.0000 0.0000 -0.0000 7.2851 -5.9207 -3.3472 -0.0000 0.0000 -0.0000 -31.6613 -3.4016 2.6017 -43.9819 -15.6477 -18.9527 -9.4933 5.0260 51.8719 13.1837 -3.5225 -0.9842 -0.0000 0.0000 -0.0000 33.8245 5.0936 3.4245 41.4342 2.1902 -14.8940 11.3906 2.9197 21.2629 -11.9544 2.9502 -0.8357 0.0000 0.0000 0.0000 3.9170 3.1686 4.8657 4.3775 18.8924 5.5219 -1.1481 0.0979 -4.7639 0.0000 0.0000 -0.0000
-1.1345 40.1334 -2.8957 -1.9530 -9.2152 -2.4486 0.0000 0.0000 0.0000 0.2684 -2.2846 2.7761 -0.9610 -2.0368 3.2227 0.4084 -0.0509 -2.9951 0.0000 -0.0000 0.0000 0.0000 0.0000 0.0000 3.5165 -0.0986 1.0036 -0.3489 -0.1952 1.1572 -0.0000 0.0000 -0.0000 7.3020 -5.7258 -3.5175 -0.0000 0.0000 -0.0000 -31.5757 -3.3662 2.5825 -44.6675 -15.9665 -18.0391 -9.9584 5.0444 51.1036 13.1387 -3.7623 -1.0061 -0.0000 0.0000 -0.0000 33.9529 5.1080 3.4414 41.4805 2.4913 -14.7449 11.4365 2.9160 21.3372 -11.7294 2.9364 -0.8181 0.0000 0.0000 0.0000 3.9399 3.1886 4.8566 4.3218 18.6954 5.5260 -1.1191 0.0961 -4.7711 0.0000 0.0000 -0.0000
-1.1352 40.1339 -2.9018 -1.9267 -8.8811 -2.4180 0.0000 0.0000 0.0000 0.2517 -2.2970 2.7585 -1.0066 -2.3563 3.2337 0.4168 -0.0514 -3.0270 0.0000 -0.0000 0.0000 0.0000 0.0000 0.0000 3.4819 -0.1401 0.9442 -0.3456 -0.2389 1.1728 -0.0000 0.0000 -0.0000 7.3547 -5.4644 -3.6596 -0.0000 0.0000 -0.0000 -31.5496 -3.3156 2.5617 -45.3409 -16.1337 -16.8763 -10.5796 5.0694 50.0376 13.0000 -3.8385 -1.0031 -0.0000 0.0000 -0.0000 34.1341 5.1361 3.4685 41.3890 2.7323 -14.7328 11.4434 2.7140 21.6289 -11.6474 3.0447 -0.8222 0.0000 0.0000 0.0000 3.9237 3.1610 4.7357 4.2861 18.3980 5.5392 -1.0710 0.0930 -4.7539 0.0000 0.0000 -0.0000
-1.1314 40.1344 -2.9054 -1.8961 -8.4234 -2.3491 0.0000 0.0000 0.0000 0.2086 -2.3413 2.7383 -1.0334 -2.7606 3.1934 0.4313 -0.0523 -3.0278 0.0000 -0.0000 0.0000 0.0000 0.0000 0.0000 3.4575 -0.2389 0.8513 -0.3512 -0.3418 1.1255 -0.0000 0.0000 -0.0000 7.3348 -5.1132 -3.7789 -0.0000 0.0000 -0.0000 -31.5671 -3.2810 2.5499 -45.9922 -16.2725 -15.8172 -11.1166 5.0917 49.0628 12.8274 -3.8166 -0.9869 -0.0000 0.0000 -0.0000 34.2753 5.1606 3.4907 41.3270 2.7796 -14.7509 11.4262 2.6422 21.9286 -11.6810 3.1219 -0.8319 0.0000 0.0000 0.0000 3.8754 3.0900 4.5655 4.2589 18.0194 5.5203 -1.0281 0.0902 -4.7124 0.0000 0.0000 -0.0000
-1.1310 40.1349 -2.9006 -1.8823 -8.1303 -2.3353 0.0000 0.0000 0.0000 0.1825 -2.3769 2.7832 -1.0401 -3.0028 3.1442 0.4499 -0.0535 -3.0211 0.0000 -0.0000 0.0000 0.0000 0.0000 0.0000 3.4804 -0.2571 0.7714 -0.3659 -0.3614 1.1001 -0.0000 0.0000 -0.0000 7.2527 -4.8165 -3.8520 -0.0000 0.0000 -0.0000 -31.6418 -3.3019 2.5628 -46.5386 -16.3819 -15.0278 -11.4959 5.1071 48.3709 12.6611 -3.8980 -0.9819 -0.0000 0.0000 -0.0000 34.3395 5.1735 3.5014 41.3187 2.6723 -14.6895 11.4316 2.7623 22.0070 -11.7180 3.1297 -0.8353 0.0000 0.0000 0.0000 3.8667 3.0669 4.5192 4.2101 17.7585 5.4715 -0.9814 0.0872 -4.6918 0.0000 0.0000 -0.0000
-1.1386 40.1356 -2.8896 -1.8523 -8.0886 -2.4152 0.0000 0.0000 0.0000 0.1594 -2.3951 2.8825 -1.0526 -3.0204 3.1619 0.4581 -0.0539 -3.0627 0.0000 -0.0000 0.0000 0.0000 0.0000 0.0000 3.4362 -0.1466 0.7471 -0.2665 -0.2657 1.1260 -0.0000 0.0000 -0.0000 7.1776 -4.7832 -3.8689 -0.0000 0.0000 -0.0000 -31.8588 -3.3550 2.5976 -46.8465 -16.4161 -14.3505 -11.8412 5.1183 47.8237 12.5569 -4.1519 -0.9991 -0.0000 0.0000 -0.0000 34.3217 5.1756 3.5017 41.3050 2.5139 -14.5911 11.4519 2.9030 21.9912 -11.7125 3.1247 -0.8345 0.0000 0.0000 0.0000 3.8873 3.1156 4.6535 4.1138 17.6825 5.3842 -0.9093 0.0825 -4.6829 0.0000 0.0000 -0.0000
-1.1459 40.1366 -2.8820 -1.7652 -7.9791 -2.5047 0.0000 0.0000 0.0000 0.0812 -2.4380 2.9569 -1.0864 -3.0903 3.2378 0.4569 -0.0536 -3.1412 0.0000 -0.0000 0.0000 0.0000 0.0000 0.0000 3.2961 -0.0657 0.6984 -0.1167 -0.2067 1.2175 -0.0000 0.0000 -0.0000 7.0983 -4.8605 -3.8166 -0.0000 0.0000 -0.0000 -32.1104 -3.3726 2.6215 -46.9863 -16.4717 -13.6741 -12.1904 5.1271 47.3527 12.6085 -4.4364 -1.0322 -0.0000 0.0000 -0.0000 34.2961 5.1782 3.5049 41.2607 2.3582 -14.6153 11.4259 2.9554 22.0690 -11.7062 3.0380 -0.8259 0.0000 0.0000 0.0000 3.8458 3.1335 4.7873 3.9965 17.5560 5.2633 -0.8307 0.0775 -4.6268 0.0000 0.0000 -0.0000
-1.1473 40.1397 -2.8852 -1.6671 -7.5728 -2.5119 0.0000 0.0000 0.0000 -0.0231 -2.5079 2.9698 -1.1256 -3.4223 3.2781 0.4790 -0.0549 -3.1800 0.0000 -0.0000 0.0000 0.0000 0.0000 0.0000 3.2111 -0.1486 0.5558 -0.1318 -0.2891 1.3617 -0.0000 0.0000 -0.0000 6.8815 -4.6187 -3.6402 -0.0000 0.0000 -0.0000 -32.1297 -3.3382 2.6098 -47.1893 -16.6292 -13.1232 -12.4391 5.1332 47.0167 12.7565 -4.5521 -1.0566 -0.0000 0.0000 -0.0000 34.3321 5.1795 3.5073 41.2281 2.2765 -14.8219 11.3467 2.8710 22.1000 -11.7172 2.7983 -0.8043 0.0000 0.0000 0.0000 3.7631 3.0830 4.7248 3.9043 17.1779 5.1961 -0.7670 0.0734 -4.5379 0.0000 0.0000 -0.0000
